<svg xmlns="http://www.w3.org/2000/svg" xmlns:xlink="http://www.w3.org/1999/xlink" version="1.1" id="Layer_1" x="0px" y="0px" enable-background="new 0 0 1024 1024" xml:space="preserve" viewBox="357.73 324.8 275.37 388.87">
<path fill="#000000" opacity="1.000000" stroke="none" d=" M499.302032,637.514038   C501.424042,625.238953 504.939453,613.760254 508.790222,602.427979   C512.504211,591.498474 510.110870,582.194580 503.175232,573.511841   C499.004852,568.290894 495.087311,562.840515 493.029297,556.404602   C489.505585,545.385010 492.114777,535.013794 496.465515,523.604858   C498.994171,527.826111 497.921844,531.250427 498.444427,534.399719   C500.912323,549.271667 511.050903,557.406860 523.855225,562.805603   C535.309875,567.635315 547.726257,568.705627 559.888428,570.522705   C568.525757,571.813171 576.807922,573.945068 584.712158,577.711609   C589.667480,580.072876 594.759216,582.178101 600.498779,581.803589   C603.215637,581.626343 605.717407,581.073608 608.959595,578.935486   C600.409180,574.402893 592.730530,569.637085 586.866211,561.807129   C589.770081,561.073181 591.292053,562.894592 592.896423,563.894043   C599.022949,567.710754 605.402527,570.893433 612.502441,572.402222   C618.168701,573.606445 621.716797,571.963867 622.578064,567.914490   C623.686279,562.704102 620.364075,557.867004 615.075806,556.980042   C614.094727,556.815491 613.054260,556.775757 612.153870,556.404846   C609.819824,555.443420 608.894165,553.398438 609.403687,551.136597   C609.971436,548.616455 612.190308,549.203796 613.944397,549.630981   C616.198853,550.180054 618.394775,550.969604 621.105469,551.806702   C620.257141,549.247437 618.559265,547.579956 617.017761,545.806213   C606.526611,533.734985 596.178772,521.535522 585.500244,509.632629   C580.641052,504.216278 577.626648,498.257202 576.772583,491.036346   C575.231079,478.001709 567.975891,468.962799 556.378784,463.387634   C552.475159,461.510956 550.439209,458.853638 548.906616,454.808777   C533.765503,414.847137 509.837708,381.137451 476.535217,354.200562   C475.149170,353.079437 473.511353,352.139984 472.834473,350.338257   C473.431580,349.240784 474.302704,349.615234 474.970245,349.969177   C497.786285,362.065521 519.381287,375.790741 535.361267,396.680328   C548.631287,414.027344 558.657959,433.128540 565.231567,453.977325   C566.180969,456.988525 567.611694,459.317963 570.179260,461.173859   C579.076782,467.605194 584.865173,476.211792 586.592041,487.071533   C588.331421,498.009979 594.691711,506.285309 601.417847,514.329102   C609.000671,523.397278 616.990723,532.125671 624.829163,540.979187   C632.207520,549.312988 635.411621,558.504822 631.274841,569.499146   C629.556641,574.065430 627.203491,577.876648 622.544983,579.833435   C621.278381,580.365479 620.305298,581.165039 619.434204,582.228149   C613.234070,589.794739 605.168518,592.095215 595.732788,590.598022   C587.632629,589.312744 587.808044,589.435608 584.604736,596.778015   C578.166626,611.534912 578.589539,626.215149 584.525391,640.948730   C585.318176,642.916626 586.120850,644.880615 587.032104,647.125000   C582.556396,645.490967 576.251953,638.057739 570.888000,628.716797   C566.800049,621.597961 564.627502,613.790649 562.439392,604.819519   C559.921570,614.348022 562.978516,622.320068 564.337524,630.654541   C561.825195,630.696533 560.929810,628.916687 559.846985,627.652222   C550.972900,617.289307 547.418274,605.117188 547.521118,591.631042   C547.539673,589.199341 549.147522,585.791748 545.934631,584.454163   C542.340637,582.957825 540.669067,586.346924 538.787476,588.566284   C520.723267,609.873291 512.165955,635.119385 508.295227,662.303528   C505.958679,678.712891 506.037048,695.145447 507.724152,711.600891   C507.788116,712.224487 507.581329,712.875916 507.503510,713.492126   C505.361755,714.186890 504.259064,712.633118 503.034241,711.676941   C484.542511,697.241638 468.222565,680.695435 454.361633,661.728394   C452.194153,658.762451 451.694580,656.003723 452.683228,652.461243   C458.390106,632.012390 468.653900,613.740479 479.459412,595.715393   C479.760620,595.212830 480.383423,594.903137 480.896515,594.469543   C482.307831,596.017029 481.129517,597.138916 480.709808,598.244019   C473.299316,617.756897 471.921387,638.094238 472.365997,658.688721   C472.396057,660.081238 472.787903,661.337891 473.585602,662.426819   C480.370819,671.689209 487.298065,680.831421 496.985535,689.229126   C495.562744,671.425232 496.310883,654.614014 499.302032,637.514038  z"/>
<path fill="#000000" opacity="1.000000" stroke="none" d=" M477.959229,415.986755   C451.042786,368.179779 409.593842,340.247131 357.728088,326.009460   C362.275269,323.734192 366.440063,325.283478 370.568024,325.723267   C386.444244,327.414825 402.330139,329.197266 417.482574,334.624390   C428.762665,338.664551 439.962097,342.950897 450.394867,348.950653   C455.504150,351.888977 461.032898,354.367981 465.487213,358.108307   C471.347900,363.029541 478.207947,366.423798 483.997162,371.381287   C486.251892,373.312042 487.948242,375.026855 485.637146,378.020416   C494.911713,378.863831 503.368103,386.879425 501.944733,393.113129   C510.575470,394.393372 518.570984,404.305298 515.428772,411.120453   C520.667664,410.921600 523.522705,413.968109 525.528564,418.166748   C527.335022,421.947937 532.365662,425.543457 524.873657,429.953430   C534.053223,429.451843 535.252869,436.227325 537.762939,441.585114   C540.068848,446.507141 542.126709,451.545349 544.195435,456.305908   C542.400208,458.184052 540.860474,457.412445 539.529175,457.063232   C526.685669,453.694458 514.050476,455.200104 501.663879,459.058899   C497.415161,460.382477 495.779297,459.426117 494.544434,455.347046   C490.436584,441.777863 485.088959,428.696655 477.959229,415.986755  z"/>
<path fill="#000000" opacity="1.000000" stroke="none" d=" M427.530853,530.529541   C438.241791,520.699524 447.997864,510.483307 456.634918,499.188263   C458.825592,496.323456 458.367279,494.864807 455.815887,492.732452   C441.770447,480.994080 435.003906,465.448761 432.711731,447.647736   C432.669342,447.318298 432.688568,446.981476 432.661102,446.649567   C431.725769,435.339844 431.704926,435.436188 443.023407,437.845032   C464.051331,442.320251 482.661316,451.476624 498.002716,466.637054   C504.095947,472.658417 508.927643,479.766876 512.184937,488.038422   C493.145081,468.737152 470.957367,455.317108 443.326904,448.908875   C446.350281,462.967285 452.127838,474.273041 462.031738,483.482788   C471.882141,492.642792 483.751892,497.206238 497.007355,499.003326   C492.081238,501.928314 486.753723,501.760895 481.725464,501.145416   C474.444427,500.254181 470.134918,502.887726 465.681702,508.788330   C445.804962,535.125549 421.576324,556.803345 393.037262,573.529846   C391.778381,574.267700 390.626343,575.359436 388.269012,575.033630   C388.627808,569.570374 388.930481,564.049988 389.379181,558.541382   C389.582092,556.050476 391.658020,555.034119 393.542755,553.932312   C405.348114,547.031311 416.943420,539.823242 427.530853,530.529541  z"/>
<path fill="#000000" opacity="1.000000" stroke="none" d=" M563.048828,515.839355   C563.183472,517.453857 564.507446,518.572937 563.458252,520.203247   C560.787842,519.045227 559.946350,516.361023 558.602661,514.255981   C556.365967,510.751953 553.897888,508.982300 549.270996,509.421143   C542.300720,510.082306 537.492493,505.831818 536.777832,499.641968   C537.798645,498.344116 538.900696,500.005249 540.246460,499.432678   C537.720276,495.059326 531.485535,494.805298 529.428345,489.898407   C543.805176,487.664520 556.305054,495.112274 560.695312,508.352570   C561.479675,510.718140 562.190063,513.108276 563.048828,515.839355  z"/>
</svg>